<svg height="2046" width="720" xmlns="http://www.w3.org/2000/svg">
<rect height="2046" fill="#555" width="720"></rect>
<text fill="#7f7" font-family="Courier New" font-size="12" xml:space="preserve">
<tspan x="10" y="26"></tspan>
<tspan x="10" y="42">&gt; npmdoc-smtp-connection@0.0.1 test /home/travis/build/npmdoc/node-npmdoc-smtp-connection</tspan>
<tspan x="10" y="58">&gt; (set -e; export PORT=$(utility2 shServerPortRandom); utility2 test test.js)</tspan>
<tspan x="10" y="74"></tspan>
<tspan x="10" y="90"></tspan>
<tspan x="10" y="106">[MODE_BUILD=npmTest] - 2017-04-07T12:22:27Z - npm-testing /home/travis/build/npmdoc/node-npmdoc-\</tspan>
<tspan x="10" y="122">smtp-connection</tspan>
<tspan x="10" y="138"></tspan>
<tspan x="10" y="154"></tspan>
<tspan x="10" y="170">covering $ /home/travis/.nvm/versions/node/v6.10.2/bin/node /home/travis/build/npmdoc/node-npmdo\</tspan>
<tspan x="10" y="186">c-smtp-connection/test.js</tspan>
<tspan x="10" y="202">merging file:///home/travis/build/npmdoc/node-npmdoc-smtp-connection/tmp/build/test-report.json \</tspan>
<tspan x="10" y="218">to test-report</tspan>
<tspan x="10" y="234">&gt; server listening on http-port 54211</tspan>
<tspan x="10" y="250">created apidoc file:///home/travis/build/npmdoc/node-npmdoc-smtp-connection/tmp/build/apidoc.htm\</tspan>
<tspan x="10" y="266">l</tspan>
<tspan x="10" y="282"></tspan>
<tspan x="10" y="298"></tspan>
<tspan x="10" y="314">browserTest - created electron entry-page /home/travis/build/npmdoc/node-npmdoc-smtp-connection/\</tspan>
<tspan x="10" y="330">tmp/electron.15b485da5150.f1a42d6778d1.html</tspan>
<tspan x="10" y="346"></tspan>
<tspan x="10" y="362">[node test-case 1 of 6 passed] - testCase_buildLib_default</tspan>
<tspan x="10" y="378">[node test-case 2 of 6 passed] - testCase_buildReadme_default</tspan>
<tspan x="10" y="394">[node test-case 3 of 6 passed] - testCase_buildTest_default</tspan>
<tspan x="10" y="410"></tspan>
<tspan x="10" y="426">browserTest - created electron entry-page /home/travis/build/npmdoc/node-npmdoc-smtp-connection/\</tspan>
<tspan x="10" y="442">tmp/electron.15b485da53c0.1a936528faa3e.html</tspan>
<tspan x="10" y="458"></tspan>
<tspan x="10" y="474">Xlib:  extension "RANDR" missing on display ":99.0".</tspan>
<tspan x="10" y="490">Xlib:  extension "RANDR" missing on display ":99.0".</tspan>
<tspan x="10" y="506">&gt; server listening on http-port 47366</tspan>
<tspan x="10" y="522">merging file:///home/travis/build/npmdoc/node-npmdoc-smtp-connection/tmp/build/test-report.json \</tspan>
<tspan x="10" y="538">to test-report</tspan>
<tspan x="10" y="554">Xlib:  extension "RANDR" missing on display ":99.0".</tspan>
<tspan x="10" y="570">[5821:0407/122229:WARNING:audio_manager.cc(314)] Multiple instances of AudioManager detected</tspan>
<tspan x="10" y="586">[5821:0407/122229:WARNING:audio_manager.cc(275)] Multiple instances of AudioManager detected</tspan>
<tspan x="10" y="602">merging file:///home/travis/build/npmdoc/node-npmdoc-smtp-connection/tmp/build/test-report.json \</tspan>
<tspan x="10" y="618">to test-report</tspan>
<tspan x="10" y="634">Xlib:  extension "RANDR" missing on display ":99.0".</tspan>
<tspan x="10" y="650">[5853:0407/122229:ERROR:sandbox_linux.cc(343)] InitializeSandbox() called with multiple threads \</tspan>
<tspan x="10" y="666">in process gpu-process. </tspan>
<tspan x="10" y="682">[5821:0407/122229:ERROR:browser_gpu_channel_host_factory.cc(131)] Failed to create channel.</tspan>
<tspan x="10" y="698">[5817:0407/122229:WARNING:audio_manager.cc(314)] Multiple instances of AudioManager detected</tspan>
<tspan x="10" y="714">[5817:0407/122229:WARNING:audio_manager.cc(275)] Multiple instances of AudioManager detected</tspan>
<tspan x="10" y="730">[5885:0407/122229:ERROR:sandbox_linux.cc(343)] InitializeSandbox() called with multiple threads \</tspan>
<tspan x="10" y="746">in process gpu-process. </tspan>
<tspan x="10" y="762"></tspan>
<tspan x="10" y="778">browserTest - opened url http://127.0.0.1:54211?modeTest=1</tspan>
<tspan x="10" y="794"></tspan>
<tspan x="10" y="810"></tspan>
<tspan x="10" y="826">browserTest - opened url /home/travis/build/npmdoc/node-npmdoc-smtp-connection/tmp/build/apidoc.\</tspan>
<tspan x="10" y="842">html</tspan>
<tspan x="10" y="858"></tspan>
<tspan x="10" y="874">[5821:0407/122230:INFO:CONSOLE(250)] "----------|-----------|-----------|-----------|-----------\</tspan>
<tspan x="10" y="890">|</tspan>
<tspan x="10" y="906">File      |   % Stmts |% Branches |   % Funcs |   % Lines |</tspan>
<tspan x="10" y="922">----------|-----------|-----------|-----------|-----------|</tspan>
<tspan x="10" y="938">----------|-----------|-----------|-----------|-----------|</tspan>
<tspan x="10" y="954">All files |       100 |       100 |       100 |       100 |</tspan>
<tspan x="10" y="970">----------|-----------|-----------|-----------|-----------|</tspan>
<tspan x="10" y="986">", source: file:///home/travis/build/npmdoc/node-npmdoc-smtp-connection/tmp/electron.15b485da53c\</tspan>
<tspan x="10" y="1002">0.1a936528faa3e.html (250)</tspan>
<tspan x="10" y="1018">[5821:0407/122230:INFO:CONSOLE(250)] "created coverage file:///tmp/build/coverage.html/index.htm\</tspan>
<tspan x="10" y="1034">l", source: file:///home/travis/build/npmdoc/node-npmdoc-smtp-connection/tmp/electron.15b485da53\</tspan>
<tspan x="10" y="1050">c0.1a936528faa3e.html (250)</tspan>
<tspan x="10" y="1066">[node test-case 4 of 6 passed] - testCase_buildApp_default</tspan>
<tspan x="10" y="1082"></tspan>
<tspan x="10" y="1098">browserTest - created screenCapture file:///home/travis/build/npmdoc/node-npmdoc-smtp-connection\</tspan>
<tspan x="10" y="1114">/tmp/build/screenCapture.npmTest.browser..png</tspan>
<tspan x="10" y="1130"></tspan>
<tspan x="10" y="1146">browserTest - created screenCapture file:///home/travis/build/npmdoc/node-npmdoc-smtp-connection\</tspan>
<tspan x="10" y="1162">/tmp/build/screenCapture.npmTest.browser..html</tspan>
<tspan x="10" y="1178"></tspan>
<tspan x="10" y="1194">browserTest - exit-code 0 - http://127.0.0.1:54211?modeTest=1</tspan>
<tspan x="10" y="1210"></tspan>
<tspan x="10" y="1226"></tspan>
<tspan x="10" y="1242">browserTest - merged coverage from /home/travis/build/npmdoc/node-npmdoc-smtp-connection/tmp/cov\</tspan>
<tspan x="10" y="1258">erage.npmTest.browser.%2F.json</tspan>
<tspan x="10" y="1274"></tspan>
<tspan x="10" y="1290"></tspan>
<tspan x="10" y="1306">browserTest - merging test-report from /home/travis/build/npmdoc/node-npmdoc-smtp-connection/tmp\</tspan>
<tspan x="10" y="1322">/test-report.npmTest.browser.%2F.json</tspan>
<tspan x="10" y="1338"></tspan>
<tspan x="10" y="1354">[node test-case 5 of 6 passed] - testCase_webpage_default</tspan>
<tspan x="10" y="1370"></tspan>
<tspan x="10" y="1386">browserTest - created screenCapture file:///home/travis/build/npmdoc/node-npmdoc-smtp-connection\</tspan>
<tspan x="10" y="1402">/tmp/build/screenCapture.npmTest.browser._2Fhome_2Ftravis_2Fbuild_2Fnpmdoc_2Fnode-npmdoc-smtp-co\</tspan>
<tspan x="10" y="1418">nnection_2Ftmp_2Fbuild_2Fapidoc.html.png</tspan>
<tspan x="10" y="1434"></tspan>
<tspan x="10" y="1450">browserTest - created screenCapture file:///home/travis/build/npmdoc/node-npmdoc-smtp-connection\</tspan>
<tspan x="10" y="1466">/tmp/build/screenCapture.npmTest.browser._2Fhome_2Ftravis_2Fbuild_2Fnpmdoc_2Fnode-npmdoc-smtp-co\</tspan>
<tspan x="10" y="1482">nnection_2Ftmp_2Fbuild_2Fapidoc.html.html</tspan>
<tspan x="10" y="1498"></tspan>
<tspan x="10" y="1514">browserTest - exit-code 0 - /home/travis/build/npmdoc/node-npmdoc-smtp-connection/tmp/build/apid\</tspan>
<tspan x="10" y="1530">oc.html</tspan>
<tspan x="10" y="1546"></tspan>
<tspan x="10" y="1562">[node test-case 6 of 6 passed] - testCase_buildApidoc_default</tspan>
<tspan x="10" y="1578">------------------------------------|-----------|-----------|-----------|-----------|</tspan>
<tspan x="10" y="1594">File                                |   % Stmts |% Branches |   % Funcs |   % Lines |</tspan>
<tspan x="10" y="1610">------------------------------------|-----------|-----------|-----------|-----------|</tspan>
<tspan x="10" y="1626">   node-npmdoc-smtp-connection/     |       100 |       100 |       100 |       100 |</tspan>
<tspan x="10" y="1642">      example.js                    |       100 |       100 |       100 |       100 |</tspan>
<tspan x="10" y="1658">      lib.npmdoc_smtp_connection.js |       100 |       100 |       100 |       100 |</tspan>
<tspan x="10" y="1674">      test.js                       |       100 |       100 |       100 |       100 |</tspan>
<tspan x="10" y="1690">------------------------------------|-----------|-----------|-----------|-----------|</tspan>
<tspan x="10" y="1706">All files                           |       100 |       100 |       100 |       100 |</tspan>
<tspan x="10" y="1722">------------------------------------|-----------|-----------|-----------|-----------|</tspan>
<tspan x="10" y="1738"></tspan>
<tspan x="10" y="1754">created coverage file:///home/travis/build/npmdoc/node-npmdoc-smtp-connection/tmp/build/coverage\</tspan>
<tspan x="10" y="1770">.html/index.html</tspan>
<tspan x="10" y="1786">merging file:///home/travis/build/npmdoc/node-npmdoc-smtp-connection/tmp/build/test-report.json \</tspan>
<tspan x="10" y="1802">to test-report</tspan>
<tspan x="10" y="1818"></tspan>
<tspan x="10" y="1834">-------------------------------------------------------</tspan>
<tspan x="10" y="1850">| test-report - buildNpmdoc - node - linux v6.10.2 - 2017-04-07T12:21:50.331Z</tspan>
<tspan x="10" y="1866">|   52886 ms            0 failed        6 passed      |</tspan>
<tspan x="10" y="1882">-------------------------------------------------------</tspan>
<tspan x="10" y="1898"></tspan>
<tspan x="10" y="1914">created test-report file:///home/travis/build/npmdoc/node-npmdoc-smtp-connection/tmp/build/test-\</tspan>
<tspan x="10" y="1930">report.html</tspan>
<tspan x="10" y="1946"></tspan>
<tspan x="10" y="1962"></tspan>
<tspan x="10" y="1978">npmTest - 0 failed tests</tspan>
<tspan x="10" y="1994"></tspan>
<tspan x="10" y="2010"></tspan>
<tspan x="10" y="2026">[MODE_BUILD=npmTest] - 2017-04-07T12:22:46Z - EXIT_CODE - 0</tspan>
</text>
</svg>
